<svg width="165" height="86" viewBox="0 0 165 86" fill="none" xmlns="http://www.w3.org/2000/svg">
<path d="M109.5 68.4C106.767 68.4 104.567 67.5667 102.9 65.9C101.233 64.2333 100.4 62.0167 100.4 59.25V41.8C100.4 39.0333 101.233 36.8167 102.9 35.15C104.567 33.45 106.767 32.6 109.5 32.6C112.267 32.6 114.483 33.45 116.15 35.15C117.85 36.8167 118.7 39.0333 118.7 41.8V59.25C118.7 62.0167 117.85 64.2333 116.15 65.9C114.483 67.5667 112.267 68.4 109.5 68.4ZM109.5 64.25C110.833 64.25 111.9 63.8167 112.7 62.95C113.5 62.05 113.9 60.8833 113.9 59.45V41.55C113.9 40.1167 113.5 38.9667 112.7 38.1C111.9 37.2 110.833 36.75 109.5 36.75C108.2 36.75 107.15 37.2 106.35 38.1C105.583 38.9667 105.2 40.1167 105.2 41.55V59.45C105.2 60.8833 105.583 62.05 106.35 62.95C107.15 63.8167 108.2 64.25 109.5 64.25ZM141.046 33C141.379 33 141.546 33.1667 141.546 33.5V36.65C141.546 36.9833 141.379 37.15 141.046 37.15H134.496C134.362 37.15 134.296 37.2167 134.296 37.35V67.5C134.296 67.8333 134.129 68 133.796 68H129.996C129.662 68 129.496 67.8333 129.496 67.5V37.35C129.496 37.2167 129.429 37.15 129.296 37.15H123.096C122.762 37.15 122.596 36.9833 122.596 36.65V33.5C122.596 33.1667 122.762 33 123.096 33H141.046ZM153.101 68.4C150.401 68.4 148.218 67.5833 146.551 65.95C144.918 64.2833 144.101 62.0833 144.101 59.35V41.6C144.101 38.8667 144.918 36.6833 146.551 35.05C148.218 33.4167 150.401 32.6 153.101 32.6C155.835 32.6 158.018 33.4167 159.651 35.05C161.318 36.6833 162.151 38.8667 162.151 41.6V42.4C162.151 42.7333 161.985 42.9 161.651 42.9L157.851 43.1C157.518 43.1 157.351 42.9333 157.351 42.6V41.3C157.351 39.9333 156.951 38.8333 156.151 38C155.385 37.1667 154.368 36.75 153.101 36.75C151.835 36.75 150.818 37.1667 150.051 38C149.285 38.8333 148.901 39.9333 148.901 41.3V59.7C148.901 61.0667 149.285 62.1667 150.051 63C150.818 63.8333 151.835 64.25 153.101 64.25C154.368 64.25 155.385 63.8333 156.151 63C156.951 62.1667 157.351 61.0667 157.351 59.7V58.4C157.351 58.0667 157.518 57.9 157.851 57.9L161.651 58.1C161.985 58.1 162.151 58.2667 162.151 58.6V59.35C162.151 62.0833 161.318 64.2833 159.651 65.95C158.018 67.5833 155.835 68.4 153.101 68.4Z" fill="white"/>
<rect width="71.8551" height="70.1255" transform="matrix(0.96981 -0.243862 0.256935 0.966429 0 17.5229)" fill="#AB0039"/>
<ellipse cx="63.7514" cy="22.5" rx="5.14124" ry="4.5" fill="white"/>
<path d="M54.4972 22.5C54.4972 24.433 52.6558 26 50.3842 26C48.1127 26 46.2712 24.433 46.2712 22.5C46.2712 20.567 48.1127 19 50.3842 19C52.6558 19 54.4972 20.567 54.4972 22.5Z" fill="white"/>
<ellipse cx="50.3842" cy="33.5" rx="4.11299" ry="3.5" fill="white"/>
<ellipse cx="50.3842" cy="43.5" rx="4.11299" ry="3.5" fill="white"/>
<ellipse cx="39.0735" cy="43.5" rx="3.08475" ry="2.5" fill="white"/>
<ellipse cx="28.2767" cy="43.5" rx="1.54237" ry="1.5" fill="white"/>
<ellipse cx="28.2767" cy="33.5" rx="1.54237" ry="1.5" fill="white"/>
<ellipse cx="28.2767" cy="22.5" rx="1.54237" ry="1.5" fill="white"/>
<ellipse cx="19.0227" cy="22.5" rx="0.514124" ry="0.5" fill="white"/>
<ellipse cx="19.0227" cy="33.5" rx="0.514124" ry="0.5" fill="white"/>
<ellipse cx="19.0227" cy="43.5" rx="0.514124" ry="0.5" fill="white"/>
<ellipse cx="39.0735" cy="33.5" rx="3.08475" ry="2.5" fill="white"/>
<ellipse cx="39.0735" cy="22.5" rx="3.08475" ry="2.5" fill="white"/>
<ellipse cx="63.7514" cy="33.5" rx="5.14124" ry="4.5" fill="white"/>
<ellipse cx="63.7514" cy="43.5" rx="5.14124" ry="4.5" fill="white"/>
</svg>
