<svg width="28" height="30" viewBox="0 0 28 30" fill="none" xmlns="http://www.w3.org/2000/svg">
<g id="24 / symbols / youtube">
<path id="icon" fill-rule="evenodd" clip-rule="evenodd" d="M25.6955 22.6602C26.4927 21.1964 26.8333 18.8361 26.8333 14.9965C26.8333 11.1722 26.4959 8.82561 25.6902 7.32254C24.8828 5.7617 23.9251 5.26629 22.0246 5.14738C20.7272 5.05315 17.5026 5 14.0031 5C10.496 5 7.26998 5.05313 5.9628 5.14811C4.07293 5.26657 3.11509 5.76308 2.30055 7.32825C1.50657 8.82613 1.16663 11.1842 1.16663 15.0105C1.16663 18.8151 1.50822 21.185 2.30752 22.678C3.11147 24.223 4.05405 24.7135 5.96 24.8569C7.32984 24.9428 10.7384 25 14.0031 25C17.2604 25 20.6673 24.9428 22.0246 24.8579C23.9481 24.7135 24.8905 24.2222 25.6955 22.6602ZM21.8778 7.64239C23.0666 7.71683 23.287 7.83131 23.6638 8.56205C24.2124 9.57999 24.5 11.5721 24.5 15.0105C24.5 18.4228 24.2109 20.426 23.6664 21.4262C23.2883 22.1593 23.0693 22.2734 21.8751 22.3631C20.5904 22.4434 17.2165 22.5 14.0031 22.5C10.7824 22.5 7.40683 22.4434 6.10983 22.3621C4.9303 22.2733 4.70822 22.1577 4.33848 21.4473C3.7903 20.4232 3.49996 18.4088 3.49996 14.9965C3.49996 11.5862 3.78875 9.58298 4.33401 8.55428C4.7095 7.83284 4.93314 7.71691 6.1099 7.64311C7.35588 7.55263 10.5516 7.5 14.0031 7.5C17.4472 7.5 20.6414 7.55265 21.8778 7.64239ZM11.6666 11.25L17.5 15L11.6666 18.75V11.25Z" fill="white"/>
</g>
</svg>
